<svg width="481" height="321" viewBox="0 0 481 321" fill="none" xmlns="http://www.w3.org/2000/svg">
<path d="M234.012 171.606C234.012 172.306 233.888 172.92 233.641 173.447C233.393 173.975 233.038 174.382 232.576 174.668C232.117 174.954 231.59 175.098 230.994 175.098C230.405 175.098 229.879 174.956 229.417 174.673C228.955 174.39 228.597 173.986 228.343 173.462C228.089 172.935 227.96 172.329 227.957 171.646V171.294C227.957 170.594 228.082 169.979 228.333 169.448C228.587 168.914 228.943 168.506 229.402 168.223C229.865 167.936 230.392 167.793 230.984 167.793C231.577 167.793 232.103 167.936 232.562 168.223C233.024 168.506 233.38 168.914 233.631 169.448C233.885 169.979 234.012 170.592 234.012 171.289V171.606ZM232.527 171.284C232.527 170.539 232.394 169.972 232.127 169.585C231.86 169.198 231.479 169.004 230.984 169.004C230.493 169.004 230.114 169.196 229.847 169.58C229.58 169.961 229.445 170.521 229.441 171.26V171.606C229.441 172.332 229.575 172.896 229.842 173.296C230.109 173.696 230.493 173.896 230.994 173.896C231.486 173.896 231.863 173.704 232.127 173.32C232.391 172.933 232.524 172.37 232.527 171.631V171.284ZM239.578 173.081L240.271 169.717H241.634L240.286 175H239.104L238.104 171.675L237.103 175H235.926L234.578 169.717H235.94L236.629 173.076L237.596 169.717H238.616L239.578 173.081ZM243.636 169.717L243.68 170.327C244.057 169.855 244.563 169.619 245.198 169.619C245.758 169.619 246.175 169.784 246.448 170.112C246.722 170.441 246.862 170.933 246.868 171.587V175H245.457V171.621C245.457 171.322 245.392 171.105 245.262 170.972C245.132 170.835 244.915 170.767 244.612 170.767C244.215 170.767 243.917 170.936 243.719 171.274V175H242.308V169.717H243.636ZM250.374 175.098C249.599 175.098 248.968 174.86 248.479 174.385C247.994 173.91 247.752 173.276 247.752 172.485V172.349C247.752 171.818 247.854 171.344 248.06 170.928C248.265 170.508 248.554 170.186 248.929 169.961C249.306 169.733 249.736 169.619 250.218 169.619C250.94 169.619 251.508 169.847 251.922 170.303C252.339 170.758 252.547 171.405 252.547 172.241V172.817H249.183C249.228 173.162 249.365 173.439 249.593 173.647C249.824 173.856 250.115 173.96 250.467 173.96C251.01 173.96 251.435 173.763 251.741 173.369L252.435 174.146C252.223 174.445 251.937 174.679 251.575 174.849C251.214 175.015 250.813 175.098 250.374 175.098ZM250.213 170.762C249.933 170.762 249.705 170.856 249.529 171.045C249.357 171.234 249.246 171.504 249.197 171.855H251.16V171.743C251.154 171.431 251.069 171.19 250.906 171.021C250.743 170.848 250.512 170.762 250.213 170.762ZM256.321 171.04C256.129 171.014 255.96 171.001 255.813 171.001C255.28 171.001 254.93 171.182 254.764 171.543V175H253.353V169.717H254.686L254.725 170.347C255.008 169.862 255.4 169.619 255.901 169.619C256.058 169.619 256.204 169.64 256.341 169.683L256.321 171.04Z" fill="currentColor"/>
<path d="M242 130C245.039 130 247.5 132.486 247.5 135.556C247.5 138.625 245.039 141.111 242 141.111C238.961 141.111 236.5 138.625 236.5 135.556C236.5 132.486 238.961 130 242 130ZM247.5 144.639C247.5 146.111 247.115 149.542 244.489 153.375L243.375 146.667L244.667 144.056C243.815 143.958 242.921 143.889 242 143.889C241.079 143.889 240.185 143.958 239.333 144.056L240.625 146.667L239.511 153.375C236.885 149.542 236.5 146.111 236.5 144.639C233.214 145.611 231 147.361 231 149.444V155H253V149.444C253 147.361 250.8 145.611 247.5 144.639Z" fill="currentColor"/>
<path d="M21.0537 45.3975H19.8867V48H18.4219V40.8906H21.0635C21.9033 40.8906 22.5511 41.0778 23.0068 41.4521C23.4626 41.8265 23.6904 42.3555 23.6904 43.0391C23.6904 43.5241 23.5846 43.9294 23.373 44.2549C23.1647 44.5771 22.8473 44.8343 22.4209 45.0264L23.959 47.9316V48H22.3867L21.0537 45.3975ZM19.8867 44.2109H21.0684C21.4362 44.2109 21.721 44.1182 21.9229 43.9326C22.1247 43.7438 22.2256 43.485 22.2256 43.1562C22.2256 42.821 22.1296 42.5573 21.9375 42.3652C21.7487 42.1732 21.4574 42.0771 21.0635 42.0771H19.8867V44.2109ZM27.1475 48.0977C26.3727 48.0977 25.7412 47.86 25.2529 47.3848C24.7679 46.9095 24.5254 46.2764 24.5254 45.4854V45.3486C24.5254 44.818 24.6279 44.3444 24.833 43.9277C25.0381 43.5078 25.3278 43.1855 25.7021 42.9609C26.0798 42.7331 26.5094 42.6191 26.9912 42.6191C27.7139 42.6191 28.2819 42.847 28.6953 43.3027C29.112 43.7585 29.3203 44.4046 29.3203 45.2412V45.8174H25.9561C26.0016 46.1624 26.1383 46.4391 26.3662 46.6475C26.5973 46.8558 26.8887 46.96 27.2402 46.96C27.7839 46.96 28.2087 46.763 28.5146 46.3691L29.208 47.1455C28.9964 47.445 28.71 47.6794 28.3486 47.8486C27.9873 48.0146 27.5869 48.0977 27.1475 48.0977ZM26.9863 43.7617C26.7064 43.7617 26.4785 43.8561 26.3027 44.0449C26.1302 44.2337 26.0195 44.5039 25.9707 44.8555H27.9336V44.7432C27.9271 44.4307 27.8424 44.1898 27.6797 44.0205C27.5169 43.848 27.2858 43.7617 26.9863 43.7617ZM29.9209 45.3193C29.9209 44.5088 30.113 43.8561 30.4971 43.3613C30.8844 42.8665 31.4053 42.6191 32.0596 42.6191C32.639 42.6191 33.0898 42.8177 33.4121 43.2148L33.4707 42.7168H34.75V47.8242C34.75 48.2865 34.6442 48.6885 34.4326 49.0303C34.2243 49.3721 33.9297 49.6325 33.5488 49.8115C33.168 49.9906 32.722 50.0801 32.2109 50.0801C31.8236 50.0801 31.446 50.002 31.0781 49.8457C30.7103 49.6927 30.432 49.4941 30.2432 49.25L30.8682 48.3906C31.2197 48.7845 31.6462 48.9814 32.1475 48.9814C32.5218 48.9814 32.8132 48.8805 33.0215 48.6787C33.2298 48.4801 33.334 48.1969 33.334 47.8291V47.5459C33.0085 47.9137 32.5804 48.0977 32.0498 48.0977C31.415 48.0977 30.9007 47.8503 30.5068 47.3555C30.1162 46.8574 29.9209 46.1982 29.9209 45.3779V45.3193ZM31.332 45.4219C31.332 45.9004 31.4281 46.2764 31.6201 46.5498C31.8122 46.82 32.0758 46.9551 32.4111 46.9551C32.8408 46.9551 33.1484 46.7939 33.334 46.4717V44.25C33.1452 43.9277 32.8408 43.7666 32.4209 43.7666C32.0824 43.7666 31.8154 43.9049 31.6201 44.1816C31.4281 44.4583 31.332 44.8717 31.332 45.4219ZM37.3281 48H35.9121V42.7168H37.3281V48ZM35.8291 41.3496C35.8291 41.138 35.8991 40.9639 36.0391 40.8271C36.1823 40.6904 36.376 40.6221 36.6201 40.6221C36.861 40.6221 37.0531 40.6904 37.1963 40.8271C37.3395 40.9639 37.4111 41.138 37.4111 41.3496C37.4111 41.5645 37.3379 41.7402 37.1914 41.877C37.0482 42.0137 36.8577 42.082 36.6201 42.082C36.3825 42.082 36.1904 42.0137 36.0439 41.877C35.9007 41.7402 35.8291 41.5645 35.8291 41.3496ZM38.2754 45.3096C38.2754 44.7855 38.3763 44.3184 38.5781 43.9082C38.7799 43.498 39.0697 43.1807 39.4473 42.9561C39.8281 42.7314 40.2692 42.6191 40.7705 42.6191C41.4834 42.6191 42.0645 42.8372 42.5137 43.2734C42.9661 43.7096 43.2184 44.3021 43.2705 45.0508L43.2803 45.4121C43.2803 46.2227 43.054 46.8737 42.6016 47.3652C42.1491 47.8535 41.542 48.0977 40.7803 48.0977C40.0186 48.0977 39.4098 47.8535 38.9541 47.3652C38.5016 46.877 38.2754 46.2129 38.2754 45.373V45.3096ZM39.6865 45.4121C39.6865 45.9134 39.7809 46.2975 39.9697 46.5645C40.1585 46.8281 40.4287 46.96 40.7803 46.96C41.1221 46.96 41.389 46.8298 41.5811 46.5693C41.7731 46.3057 41.8691 45.8857 41.8691 45.3096C41.8691 44.818 41.7731 44.4372 41.5811 44.167C41.389 43.8968 41.1188 43.7617 40.7705 43.7617C40.4255 43.7617 40.1585 43.8968 39.9697 44.167C39.7809 44.4339 39.6865 44.849 39.6865 45.4121ZM45.4482 42.7168L45.4922 43.3271C45.8698 42.8551 46.376 42.6191 47.0107 42.6191C47.5706 42.6191 47.9873 42.7835 48.2607 43.1123C48.5342 43.4411 48.6742 43.9326 48.6807 44.5869V48H47.2695V44.6211C47.2695 44.3216 47.2044 44.1051 47.0742 43.9717C46.944 43.835 46.7275 43.7666 46.4248 43.7666C46.0277 43.7666 45.7298 43.9359 45.5312 44.2744V48H44.1201V42.7168H45.4482Z" fill="currentColor"/>
<path d="M38.2006 14.0252C41.7563 14.0252 44.6008 16.8303 44.6008 20.3366C44.6008 21.5708 44.2452 22.7349 43.6194 23.7027L48 28.0505L46.0231 30L41.5856 25.6943C40.6042 26.2973 39.438 26.648 38.2006 26.648C34.6449 26.648 31.8004 23.8429 31.8004 20.3366C31.8004 16.8303 34.6449 14.0252 38.2006 14.0252ZM38.2006 16.8303C37.2576 16.8303 36.3532 17.1997 35.6864 17.8573C35.0195 18.5148 34.6449 19.4067 34.6449 20.3366C34.6449 21.2665 35.0195 22.1584 35.6864 22.8159C36.3532 23.4735 37.2576 23.8429 38.2006 23.8429C39.1436 23.8429 40.048 23.4735 40.7148 22.8159C41.3816 22.1584 41.7563 21.2665 41.7563 20.3366C41.7563 19.4067 41.3816 18.5148 40.7148 17.8573C40.048 17.1997 39.1436 16.8303 38.2006 16.8303ZM36.0672 5.76438L27.5336 2.80505V19.4811L28.9559 19.972V20.3366C28.9559 21.2342 29.0839 22.1038 29.3257 22.9173L27.5336 22.3001L19.9387 25.2034L19.7111 25.2454C19.5225 25.2454 19.3416 25.1716 19.2083 25.04C19.0749 24.9085 19 24.7302 19 24.5442V3.33801C19 3.01543 19.2133 2.76297 19.512 2.6648L27.5336 0L36.0672 2.9453L43.6621 0H43.8897C44.0783 0 44.2591 0.0738829 44.3925 0.205395C44.5259 0.336907 44.6008 0.515276 44.6008 0.701262V13.7588C42.9367 12.1879 40.6896 11.2202 38.2006 11.2202C37.4895 11.2202 36.7783 11.3043 36.0672 11.4586V5.76438Z" fill="currentColor"/>
<path d="M16.1475 304.235V297.126H18.6378C19.5004 297.126 20.1547 297.292 20.6006 297.624C21.0466 297.952 21.2696 298.436 21.2696 299.074C21.2696 299.422 21.1801 299.73 21.001 299.997C20.822 300.26 20.573 300.454 20.254 300.578C20.6186 300.669 20.905 300.853 21.1133 301.13C21.3249 301.406 21.4307 301.745 21.4307 302.145C21.4307 302.829 21.2126 303.346 20.7764 303.698C20.3402 304.049 19.7185 304.228 18.9112 304.235H16.1475ZM17.6124 301.139V303.058H18.8672C19.2123 303.058 19.4809 302.977 19.6729 302.814C19.8682 302.648 19.9659 302.42 19.9659 302.13C19.9659 301.479 19.629 301.149 18.9551 301.139H17.6124ZM17.6124 300.104H18.6964C19.4353 300.091 19.8047 299.797 19.8047 299.22C19.8047 298.898 19.7103 298.667 19.5215 298.527C19.336 298.384 19.0414 298.312 18.6378 298.312H17.6124V300.104ZM25.6055 303.698C25.2572 304.121 24.7755 304.333 24.1602 304.333C23.5938 304.333 23.1609 304.17 22.8614 303.844C22.5652 303.519 22.4138 303.042 22.4073 302.414V298.952H23.8184V302.365C23.8184 302.915 24.0691 303.19 24.5704 303.19C25.0489 303.19 25.3777 303.024 25.5567 302.692V298.952H26.9727V304.235H25.6446L25.6055 303.698ZM29.5264 304.235H28.1104V298.952H29.5264V304.235ZM28.0274 297.585C28.0274 297.373 28.0974 297.199 28.2374 297.062C28.3806 296.925 28.5743 296.857 28.8184 296.857C29.0593 296.857 29.2514 296.925 29.3946 297.062C29.5378 297.199 29.6094 297.373 29.6094 297.585C29.6094 297.799 29.5362 297.975 29.3897 298.112C29.2465 298.249 29.0561 298.317 28.8184 298.317C28.5808 298.317 28.3887 298.249 28.2422 298.112C28.099 297.975 28.0274 297.799 28.0274 297.585ZM32.1827 304.235H30.7667V296.735H32.1827V304.235ZM33.1299 301.554C33.1299 300.731 33.3139 300.075 33.6817 299.587C34.0528 299.098 34.559 298.854 35.2003 298.854C35.7146 298.854 36.1394 299.046 36.4747 299.43V296.735H37.8907V304.235H36.6163L36.5479 303.673C36.1964 304.113 35.7439 304.333 35.1905 304.333C34.5687 304.333 34.0691 304.089 33.6915 303.6C33.3171 303.109 33.1299 302.427 33.1299 301.554ZM34.5411 301.657C34.5411 302.152 34.6273 302.531 34.7999 302.795C34.9724 303.058 35.223 303.19 35.5518 303.19C35.988 303.19 36.2956 303.006 36.4747 302.638V300.553C36.2989 300.186 35.9945 300.002 35.5616 300.002C34.8812 300.002 34.5411 300.553 34.5411 301.657ZM40.4737 304.235H39.0577V298.952H40.4737V304.235ZM38.9747 297.585C38.9747 297.373 39.0447 297.199 39.1846 297.062C39.3279 296.925 39.5215 296.857 39.7657 296.857C40.0066 296.857 40.1986 296.925 40.3419 297.062C40.4851 297.199 40.5567 297.373 40.5567 297.585C40.5567 297.799 40.4835 297.975 40.337 298.112C40.1937 298.249 40.0033 298.317 39.7657 298.317C39.5281 298.317 39.336 298.249 39.1895 298.112C39.0463 297.975 38.9747 297.799 38.9747 297.585ZM42.9395 298.952L42.9835 299.562C43.3611 299.09 43.8672 298.854 44.502 298.854C45.0619 298.854 45.4786 299.019 45.752 299.347C46.0255 299.676 46.1654 300.168 46.1719 300.822V304.235H44.7608V300.856C44.7608 300.557 44.6957 300.34 44.5655 300.207C44.4353 300.07 44.2188 300.002 43.9161 300.002C43.5189 300.002 43.2211 300.171 43.0225 300.509V304.235H41.6114V298.952H42.9395ZM47.0411 301.554C47.0411 300.744 47.2331 300.091 47.6172 299.596C48.0046 299.102 48.5255 298.854 49.1797 298.854C49.7592 298.854 50.21 299.053 50.5323 299.45L50.5909 298.952H51.8702V304.059C51.8702 304.521 51.7644 304.923 51.5528 305.265C51.3445 305.607 51.0499 305.867 50.669 306.047C50.2881 306.226 49.8422 306.315 49.3311 306.315C48.9437 306.315 48.5661 306.237 48.1983 306.081C47.8305 305.928 47.5521 305.729 47.3633 305.485L47.9883 304.626C48.3399 305.019 48.7663 305.216 49.2676 305.216C49.642 305.216 49.9333 305.116 50.1417 304.914C50.35 304.715 50.4542 304.432 50.4542 304.064V303.781C50.1286 304.149 49.7006 304.333 49.17 304.333C48.5352 304.333 48.0209 304.085 47.627 303.59C47.2364 303.092 47.0411 302.433 47.0411 301.613V301.554ZM48.4522 301.657C48.4522 302.135 48.5482 302.511 48.7403 302.785C48.9324 303.055 49.196 303.19 49.5313 303.19C49.961 303.19 50.2686 303.029 50.4542 302.707V300.485C50.2654 300.163 49.961 300.002 49.5411 300.002C49.2025 300.002 48.9356 300.14 48.7403 300.417C48.5482 300.693 48.4522 301.107 48.4522 301.657Z" fill="currentColor"/>
<path d="M24.2632 256.474V281.737H32.6842V276.825H35.4913V281.737H43.9123V256.474H24.2632ZM27.0702 259.281H29.8772V262.088H27.0702V259.281ZM32.6842 259.281H35.4913V262.088H32.6842V259.281ZM38.2983 259.281H41.1053V262.088H38.2983V259.281ZM27.0702 264.895H29.8772V267.702H27.0702V264.895ZM32.6842 264.895H35.4913V267.702H32.6842V264.895ZM38.2983 264.895H41.1053V267.702H38.2983V264.895ZM27.0702 270.509H29.8772V273.316H27.0702V270.509ZM32.6842 270.509H35.4913V273.316H32.6842V270.509ZM38.2983 270.509H41.1053V273.316H38.2983V270.509ZM27.0702 276.123H29.8772V278.93H27.0702V276.123ZM38.2983 276.123H41.1053V278.93H38.2983V276.123Z" fill="currentColor"/>
<path d="M13.709 172.397H12.542V175H11.0771V167.891H13.7188C14.5586 167.891 15.2064 168.078 15.6621 168.452C16.1178 168.826 16.3457 169.355 16.3457 170.039C16.3457 170.524 16.2399 170.929 16.0283 171.255C15.82 171.577 15.5026 171.834 15.0762 172.026L16.6143 174.932V175H15.042L13.709 172.397ZM12.542 171.211H13.7236C14.0915 171.211 14.3763 171.118 14.5781 170.933C14.7799 170.744 14.8809 170.485 14.8809 170.156C14.8809 169.821 14.7848 169.557 14.5928 169.365C14.404 169.173 14.1126 169.077 13.7188 169.077H12.542V171.211ZM19.8027 175.098C19.028 175.098 18.3965 174.86 17.9082 174.385C17.4232 173.91 17.1807 173.276 17.1807 172.485V172.349C17.1807 171.818 17.2832 171.344 17.4883 170.928C17.6934 170.508 17.9831 170.186 18.3574 169.961C18.735 169.733 19.1647 169.619 19.6465 169.619C20.3691 169.619 20.9372 169.847 21.3506 170.303C21.7673 170.758 21.9756 171.405 21.9756 172.241V172.817H18.6113C18.6569 173.162 18.7936 173.439 19.0215 173.647C19.2526 173.856 19.5439 173.96 19.8955 173.96C20.4391 173.96 20.8639 173.763 21.1699 173.369L21.8633 174.146C21.6517 174.445 21.3652 174.679 21.0039 174.849C20.6426 175.015 20.2422 175.098 19.8027 175.098ZM19.6416 170.762C19.3617 170.762 19.1338 170.856 18.958 171.045C18.7855 171.234 18.6748 171.504 18.626 171.855H20.5889V171.743C20.5824 171.431 20.4977 171.19 20.335 171.021C20.1722 170.848 19.9411 170.762 19.6416 170.762ZM25.8428 175C25.7777 174.873 25.7305 174.715 25.7012 174.526C25.3594 174.907 24.915 175.098 24.3682 175.098C23.8506 175.098 23.4209 174.948 23.0791 174.648C22.7406 174.349 22.5713 173.971 22.5713 173.516C22.5713 172.956 22.778 172.526 23.1914 172.227C23.6081 171.927 24.2087 171.776 24.9932 171.772H25.6426V171.47C25.6426 171.226 25.5791 171.03 25.4521 170.884C25.3285 170.737 25.1315 170.664 24.8613 170.664C24.6237 170.664 24.4365 170.721 24.2998 170.835C24.1663 170.949 24.0996 171.105 24.0996 171.304H22.6885C22.6885 170.998 22.7829 170.715 22.9717 170.454C23.1605 170.194 23.4274 169.99 23.7725 169.844C24.1175 169.694 24.5049 169.619 24.9346 169.619C25.5856 169.619 26.1016 169.784 26.4824 170.112C26.8665 170.438 27.0586 170.897 27.0586 171.489V173.779C27.0618 174.281 27.1318 174.66 27.2686 174.917V175H25.8428ZM24.6758 174.019C24.8841 174.019 25.0762 173.973 25.252 173.882C25.4277 173.787 25.5579 173.662 25.6426 173.506V172.598H25.1152C24.4089 172.598 24.0329 172.842 23.9873 173.33L23.9824 173.413C23.9824 173.589 24.0443 173.734 24.168 173.848C24.2917 173.962 24.4609 174.019 24.6758 174.019ZM29.6318 175H28.2158V167.5H29.6318V175ZM35.1689 171.919H32.3564V173.823H35.6572V175H30.8916V167.891H35.6475V169.077H32.3564V170.771H35.1689V171.919ZM39.2852 173.54C39.2852 173.368 39.1989 173.232 39.0264 173.135C38.8571 173.034 38.5837 172.944 38.2061 172.866C36.9495 172.603 36.3213 172.069 36.3213 171.265C36.3213 170.796 36.515 170.405 36.9023 170.093C37.293 169.777 37.8024 169.619 38.4307 169.619C39.1012 169.619 39.6367 169.777 40.0371 170.093C40.4408 170.409 40.6426 170.819 40.6426 171.323H39.2314C39.2314 171.121 39.1663 170.955 39.0361 170.825C38.9059 170.692 38.7025 170.625 38.4258 170.625C38.1882 170.625 38.0042 170.679 37.874 170.786C37.7438 170.894 37.6787 171.03 37.6787 171.196C37.6787 171.353 37.752 171.479 37.8984 171.577C38.0482 171.672 38.2988 171.755 38.6504 171.826C39.002 171.895 39.2982 171.973 39.5391 172.061C40.2845 172.334 40.6572 172.808 40.6572 173.481C40.6572 173.963 40.4505 174.354 40.0371 174.653C39.6237 174.95 39.0898 175.098 38.4355 175.098C37.9928 175.098 37.599 175.02 37.2539 174.863C36.9121 174.704 36.6436 174.487 36.4482 174.214C36.2529 173.937 36.1553 173.639 36.1553 173.32H37.4932C37.5062 173.571 37.599 173.763 37.7715 173.896C37.944 174.03 38.1751 174.097 38.4648 174.097C38.735 174.097 38.9385 174.046 39.0752 173.945C39.2152 173.841 39.2852 173.706 39.2852 173.54ZM43.2598 168.418V169.717H44.1631V170.752H43.2598V173.389C43.2598 173.584 43.2972 173.724 43.3721 173.809C43.4469 173.893 43.5902 173.936 43.8018 173.936C43.958 173.936 44.0964 173.924 44.2168 173.901V174.971C43.9401 175.055 43.6553 175.098 43.3623 175.098C42.3727 175.098 41.8682 174.598 41.8486 173.599V170.752H41.0771V169.717H41.8486V168.418H43.2598ZM48.0107 175C47.9456 174.873 47.8984 174.715 47.8691 174.526C47.5273 174.907 47.083 175.098 46.5361 175.098C46.0186 175.098 45.5889 174.948 45.2471 174.648C44.9085 174.349 44.7393 173.971 44.7393 173.516C44.7393 172.956 44.946 172.526 45.3594 172.227C45.776 171.927 46.3766 171.776 47.1611 171.772H47.8105V171.47C47.8105 171.226 47.7471 171.03 47.6201 170.884C47.4964 170.737 47.2995 170.664 47.0293 170.664C46.7917 170.664 46.6045 170.721 46.4678 170.835C46.3343 170.949 46.2676 171.105 46.2676 171.304H44.8564C44.8564 170.998 44.9508 170.715 45.1396 170.454C45.3285 170.194 45.5954 169.99 45.9404 169.844C46.2855 169.694 46.6729 169.619 47.1025 169.619C47.7536 169.619 48.2695 169.784 48.6504 170.112C49.0345 170.438 49.2266 170.897 49.2266 171.489V173.779C49.2298 174.281 49.2998 174.66 49.4365 174.917V175H48.0107ZM46.8438 174.019C47.0521 174.019 47.2441 173.973 47.4199 173.882C47.5957 173.787 47.7259 173.662 47.8105 173.506V172.598H47.2832C46.5768 172.598 46.2008 172.842 46.1553 173.33L46.1504 173.413C46.1504 173.589 46.2122 173.734 46.3359 173.848C46.4596 173.962 46.6289 174.019 46.8438 174.019ZM52 168.418V169.717H52.9033V170.752H52V173.389C52 173.584 52.0374 173.724 52.1123 173.809C52.1872 173.893 52.3304 173.936 52.542 173.936C52.6982 173.936 52.8366 173.924 52.957 173.901V174.971C52.6803 175.055 52.3955 175.098 52.1025 175.098C51.113 175.098 50.6084 174.598 50.5889 173.599V170.752H49.8174V169.717H50.5889V168.418H52ZM56.1211 175.098C55.3464 175.098 54.7148 174.86 54.2266 174.385C53.7415 173.91 53.499 173.276 53.499 172.485V172.349C53.499 171.818 53.6016 171.344 53.8066 170.928C54.0117 170.508 54.3014 170.186 54.6758 169.961C55.0534 169.733 55.4831 169.619 55.9648 169.619C56.6875 169.619 57.2555 169.847 57.6689 170.303C58.0856 170.758 58.2939 171.405 58.2939 172.241V172.817H54.9297C54.9753 173.162 55.112 173.439 55.3398 173.647C55.571 173.856 55.8623 173.96 56.2139 173.96C56.7575 173.96 57.1823 173.763 57.4883 173.369L58.1816 174.146C57.9701 174.445 57.6836 174.679 57.3223 174.849C56.9609 175.015 56.5605 175.098 56.1211 175.098ZM55.96 170.762C55.68 170.762 55.4521 170.856 55.2764 171.045C55.1038 171.234 54.9932 171.504 54.9443 171.855H56.9072V171.743C56.9007 171.431 56.8161 171.19 56.6533 171.021C56.4906 170.848 56.2594 170.762 55.96 170.762Z" fill="currentColor"/>
<path d="M42.4 146.667H39.6V149.444H42.4V146.667ZM42.4 141.111H39.6V143.889H42.4V141.111ZM45.2 152.222H34V149.444H36.8V146.667H34V143.889H36.8V141.111H34V138.333H45.2V152.222ZM31.2 135.556H28.4V132.778H31.2V135.556ZM31.2 141.111H28.4V138.333H31.2V141.111ZM31.2 146.667H28.4V143.889H31.2V146.667ZM31.2 152.222H28.4V149.444H31.2V152.222ZM25.6 135.556H22.8V132.778H25.6V135.556ZM25.6 141.111H22.8V138.333H25.6V141.111ZM25.6 146.667H22.8V143.889H25.6V146.667ZM25.6 152.222H22.8V149.444H25.6V152.222ZM34 135.556V130H20V155H48V135.556H34Z" fill="currentColor"/>
<path d="M327.899 302.823H331.01V304H326.435V296.891H327.899V302.823ZM334.193 304.098C333.419 304.098 332.787 303.86 332.299 303.385C331.814 302.91 331.571 302.276 331.571 301.485V301.349C331.571 300.818 331.674 300.344 331.879 299.928C332.084 299.508 332.374 299.186 332.748 298.961C333.126 298.733 333.555 298.619 334.037 298.619C334.76 298.619 335.328 298.847 335.741 299.303C336.158 299.758 336.366 300.405 336.366 301.241V301.817H333.002C333.048 302.162 333.184 302.439 333.412 302.647C333.643 302.856 333.935 302.96 334.286 302.96C334.83 302.96 335.255 302.763 335.561 302.369L336.254 303.146C336.042 303.445 335.756 303.679 335.395 303.849C335.033 304.015 334.633 304.098 334.193 304.098ZM334.032 299.762C333.752 299.762 333.524 299.856 333.349 300.045C333.176 300.234 333.065 300.504 333.017 300.855H334.979V300.743C334.973 300.431 334.888 300.19 334.726 300.021C334.563 299.848 334.332 299.762 334.032 299.762ZM340.233 304C340.168 303.873 340.121 303.715 340.092 303.526C339.75 303.907 339.306 304.098 338.759 304.098C338.241 304.098 337.812 303.948 337.47 303.648C337.131 303.349 336.962 302.971 336.962 302.516C336.962 301.956 337.169 301.526 337.582 301.227C337.999 300.927 338.599 300.776 339.384 300.772H340.033V300.47C340.033 300.226 339.97 300.03 339.843 299.884C339.719 299.737 339.522 299.664 339.252 299.664C339.014 299.664 338.827 299.721 338.69 299.835C338.557 299.949 338.49 300.105 338.49 300.304H337.079C337.079 299.998 337.174 299.715 337.362 299.454C337.551 299.194 337.818 298.99 338.163 298.844C338.508 298.694 338.896 298.619 339.325 298.619C339.976 298.619 340.492 298.784 340.873 299.112C341.257 299.438 341.449 299.897 341.449 300.489V302.779C341.452 303.281 341.522 303.66 341.659 303.917V304H340.233ZM339.066 303.019C339.275 303.019 339.467 302.973 339.643 302.882C339.818 302.787 339.949 302.662 340.033 302.506V301.598H339.506C338.799 301.598 338.424 301.842 338.378 302.33L338.373 302.413C338.373 302.589 338.435 302.734 338.559 302.848C338.682 302.962 338.852 303.019 339.066 303.019ZM345.395 302.54C345.395 302.368 345.308 302.232 345.136 302.135C344.966 302.034 344.693 301.944 344.315 301.866C343.059 301.603 342.431 301.069 342.431 300.265C342.431 299.796 342.624 299.405 343.012 299.093C343.402 298.777 343.912 298.619 344.54 298.619C345.211 298.619 345.746 298.777 346.146 299.093C346.55 299.409 346.752 299.819 346.752 300.323H345.341C345.341 300.121 345.276 299.955 345.146 299.825C345.015 299.692 344.812 299.625 344.535 299.625C344.298 299.625 344.114 299.679 343.983 299.786C343.853 299.894 343.788 300.03 343.788 300.196C343.788 300.353 343.861 300.479 344.008 300.577C344.158 300.672 344.408 300.755 344.76 300.826C345.111 300.895 345.408 300.973 345.648 301.061C346.394 301.334 346.767 301.808 346.767 302.481C346.767 302.963 346.56 303.354 346.146 303.653C345.733 303.95 345.199 304.098 344.545 304.098C344.102 304.098 343.708 304.02 343.363 303.863C343.021 303.704 342.753 303.487 342.558 303.214C342.362 302.937 342.265 302.639 342.265 302.32H343.603C343.616 302.571 343.708 302.763 343.881 302.896C344.053 303.03 344.285 303.097 344.574 303.097C344.844 303.097 345.048 303.046 345.185 302.945C345.325 302.841 345.395 302.706 345.395 302.54ZM350.741 304C350.676 303.873 350.629 303.715 350.6 303.526C350.258 303.907 349.813 304.098 349.267 304.098C348.749 304.098 348.319 303.948 347.978 303.648C347.639 303.349 347.47 302.971 347.47 302.516C347.47 301.956 347.676 301.526 348.09 301.227C348.507 300.927 349.107 300.776 349.892 300.772H350.541V300.47C350.541 300.226 350.478 300.03 350.351 299.884C350.227 299.737 350.03 299.664 349.76 299.664C349.522 299.664 349.335 299.721 349.198 299.835C349.065 299.949 348.998 300.105 348.998 300.304H347.587C347.587 299.998 347.681 299.715 347.87 299.454C348.059 299.194 348.326 298.99 348.671 298.844C349.016 298.694 349.403 298.619 349.833 298.619C350.484 298.619 351 298.784 351.381 299.112C351.765 299.438 351.957 299.897 351.957 300.489V302.779C351.96 303.281 352.03 303.66 352.167 303.917V304H350.741ZM349.574 303.019C349.783 303.019 349.975 302.973 350.15 302.882C350.326 302.787 350.456 302.662 350.541 302.506V301.598H350.014C349.307 301.598 348.931 301.842 348.886 302.33L348.881 302.413C348.881 302.589 348.943 302.734 349.066 302.848C349.19 302.962 349.359 303.019 349.574 303.019ZM357.802 301.407C357.802 302.254 357.621 302.914 357.26 303.39C356.898 303.862 356.394 304.098 355.746 304.098C355.173 304.098 354.716 303.878 354.374 303.438L354.311 304H353.041V296.5H354.452V299.19C354.778 298.81 355.206 298.619 355.736 298.619C356.381 298.619 356.885 298.857 357.25 299.332C357.618 299.804 357.802 300.47 357.802 301.329V301.407ZM356.391 301.305C356.391 300.771 356.306 300.382 356.137 300.138C355.967 299.89 355.715 299.767 355.38 299.767C354.931 299.767 354.621 299.951 354.452 300.318V302.403C354.625 302.774 354.937 302.96 355.39 302.96C355.845 302.96 356.145 302.735 356.288 302.286C356.356 302.071 356.391 301.744 356.391 301.305ZM360.165 304H358.749V296.5H360.165V304ZM363.764 304.098C362.989 304.098 362.357 303.86 361.869 303.385C361.384 302.91 361.142 302.276 361.142 301.485V301.349C361.142 300.818 361.244 300.344 361.449 299.928C361.654 299.508 361.944 299.186 362.318 298.961C362.696 298.733 363.126 298.619 363.607 298.619C364.33 298.619 364.898 298.847 365.312 299.303C365.728 299.758 365.937 300.405 365.937 301.241V301.817H362.572C362.618 302.162 362.755 302.439 362.982 302.647C363.214 302.856 363.505 302.96 363.856 302.96C364.4 302.96 364.825 302.763 365.131 302.369L365.824 303.146C365.613 303.445 365.326 303.679 364.965 303.849C364.604 304.015 364.203 304.098 363.764 304.098ZM363.603 299.762C363.323 299.762 363.095 299.856 362.919 300.045C362.746 300.234 362.636 300.504 362.587 300.855H364.55V300.743C364.543 300.431 364.459 300.19 364.296 300.021C364.133 299.848 363.902 299.762 363.603 299.762Z" fill="currentColor"/>
<path d="M358 274.3C358 274.832 357.708 275.294 357.264 275.532L346.292 281.748C346.069 281.916 345.792 282 345.5 282C345.208 282 344.931 281.916 344.708 281.748L333.736 275.532C333.292 275.294 333 274.832 333 274.3V261.7C333 261.168 333.292 260.706 333.736 260.468L344.708 254.252C344.931 254.084 345.208 254 345.5 254C345.792 254 346.069 254.084 346.292 254.252L357.264 260.468C357.708 260.706 358 261.168 358 261.7V274.3ZM345.5 257.01L337.222 261.7L345.5 266.39L353.778 261.7L345.5 257.01Z" fill="currentColor"/>
<path d="M434.268 172.632C434.212 173.397 433.929 173.999 433.418 174.438C432.91 174.878 432.24 175.098 431.406 175.098C430.495 175.098 429.777 174.792 429.253 174.18C428.732 173.564 428.472 172.721 428.472 171.65V171.216C428.472 170.532 428.592 169.93 428.833 169.409C429.074 168.888 429.417 168.49 429.863 168.213C430.312 167.933 430.833 167.793 431.426 167.793C432.246 167.793 432.907 168.013 433.408 168.452C433.91 168.892 434.199 169.508 434.277 170.303H432.812C432.777 169.844 432.648 169.512 432.427 169.307C432.209 169.098 431.875 168.994 431.426 168.994C430.938 168.994 430.571 169.17 430.327 169.521C430.086 169.87 429.963 170.412 429.956 171.147V171.685C429.956 172.453 430.072 173.014 430.303 173.369C430.537 173.724 430.905 173.901 431.406 173.901C431.859 173.901 432.196 173.799 432.417 173.594C432.642 173.385 432.77 173.065 432.803 172.632H434.268ZM438.301 174.463C437.952 174.886 437.471 175.098 436.855 175.098C436.289 175.098 435.856 174.935 435.557 174.609C435.26 174.284 435.109 173.807 435.103 173.179V169.717H436.514V173.13C436.514 173.68 436.764 173.955 437.266 173.955C437.744 173.955 438.073 173.789 438.252 173.457V169.717H439.668V175H438.34L438.301 174.463ZM443.594 173.54C443.594 173.368 443.507 173.232 443.335 173.135C443.166 173.034 442.892 172.944 442.515 172.866C441.258 172.603 440.63 172.069 440.63 171.265C440.63 170.796 440.824 170.405 441.211 170.093C441.602 169.777 442.111 169.619 442.739 169.619C443.41 169.619 443.945 169.777 444.346 170.093C444.749 170.409 444.951 170.819 444.951 171.323H443.54C443.54 171.121 443.475 170.955 443.345 170.825C443.215 170.692 443.011 170.625 442.734 170.625C442.497 170.625 442.313 170.679 442.183 170.786C442.052 170.894 441.987 171.03 441.987 171.196C441.987 171.353 442.061 171.479 442.207 171.577C442.357 171.672 442.607 171.755 442.959 171.826C443.311 171.895 443.607 171.973 443.848 172.061C444.593 172.334 444.966 172.808 444.966 173.481C444.966 173.963 444.759 174.354 444.346 174.653C443.932 174.95 443.398 175.098 442.744 175.098C442.301 175.098 441.908 175.02 441.562 174.863C441.221 174.704 440.952 174.487 440.757 174.214C440.562 173.937 440.464 173.639 440.464 173.32H441.802C441.815 173.571 441.908 173.763 442.08 173.896C442.253 174.03 442.484 174.097 442.773 174.097C443.044 174.097 443.247 174.046 443.384 173.945C443.524 173.841 443.594 173.706 443.594 173.54ZM447.568 168.418V169.717H448.472V170.752H447.568V173.389C447.568 173.584 447.606 173.724 447.681 173.809C447.756 173.893 447.899 173.936 448.11 173.936C448.267 173.936 448.405 173.924 448.525 173.901V174.971C448.249 175.055 447.964 175.098 447.671 175.098C446.681 175.098 446.177 174.598 446.157 173.599V170.752H445.386V169.717H446.157V168.418H447.568ZM448.892 172.31C448.892 171.785 448.993 171.318 449.194 170.908C449.396 170.498 449.686 170.181 450.063 169.956C450.444 169.731 450.885 169.619 451.387 169.619C452.1 169.619 452.681 169.837 453.13 170.273C453.582 170.71 453.835 171.302 453.887 172.051L453.896 172.412C453.896 173.223 453.67 173.874 453.218 174.365C452.765 174.854 452.158 175.098 451.396 175.098C450.635 175.098 450.026 174.854 449.57 174.365C449.118 173.877 448.892 173.213 448.892 172.373V172.31ZM450.303 172.412C450.303 172.913 450.397 173.298 450.586 173.564C450.775 173.828 451.045 173.96 451.396 173.96C451.738 173.96 452.005 173.83 452.197 173.569C452.389 173.306 452.485 172.886 452.485 172.31C452.485 171.818 452.389 171.437 452.197 171.167C452.005 170.897 451.735 170.762 451.387 170.762C451.042 170.762 450.775 170.897 450.586 171.167C450.397 171.434 450.303 171.849 450.303 172.412ZM456.089 169.717L456.133 170.308C456.507 169.849 457.013 169.619 457.651 169.619C458.332 169.619 458.799 169.888 459.053 170.425C459.424 169.888 459.953 169.619 460.64 169.619C461.213 169.619 461.639 169.787 461.919 170.122C462.199 170.454 462.339 170.955 462.339 171.626V175H460.923V171.631C460.923 171.331 460.864 171.113 460.747 170.977C460.63 170.837 460.423 170.767 460.127 170.767C459.704 170.767 459.411 170.968 459.248 171.372L459.253 175H457.842V171.636C457.842 171.33 457.782 171.108 457.661 170.972C457.541 170.835 457.336 170.767 457.046 170.767C456.646 170.767 456.356 170.933 456.177 171.265V175H454.766V169.717H456.089ZM465.859 175.098C465.085 175.098 464.453 174.86 463.965 174.385C463.48 173.91 463.237 173.276 463.237 172.485V172.349C463.237 171.818 463.34 171.344 463.545 170.928C463.75 170.508 464.04 170.186 464.414 169.961C464.792 169.733 465.221 169.619 465.703 169.619C466.426 169.619 466.994 169.847 467.407 170.303C467.824 170.758 468.032 171.405 468.032 172.241V172.817H464.668C464.714 173.162 464.85 173.439 465.078 173.647C465.309 173.856 465.601 173.96 465.952 173.96C466.496 173.96 466.921 173.763 467.227 173.369L467.92 174.146C467.708 174.445 467.422 174.679 467.061 174.849C466.699 175.015 466.299 175.098 465.859 175.098ZM465.698 170.762C465.418 170.762 465.19 170.856 465.015 171.045C464.842 171.234 464.731 171.504 464.683 171.855H466.646V171.743C466.639 171.431 466.554 171.19 466.392 171.021C466.229 170.848 465.998 170.762 465.698 170.762ZM471.807 171.04C471.615 171.014 471.445 171.001 471.299 171.001C470.765 171.001 470.415 171.182 470.249 171.543V175H468.838V169.717H470.171L470.21 170.347C470.493 169.862 470.885 169.619 471.387 169.619C471.543 169.619 471.689 169.64 471.826 169.683L471.807 171.04Z" fill="currentColor"/>
<path d="M449.5 133C451.025 133 452.488 133.579 453.566 134.611C454.644 135.642 455.25 137.041 455.25 138.5C455.25 139.959 454.644 141.358 453.566 142.389C452.488 143.421 451.025 144 449.5 144C447.975 144 446.512 143.421 445.434 142.389C444.356 141.358 443.75 139.959 443.75 138.5C443.75 137.041 444.356 135.642 445.434 134.611C446.512 133.579 447.975 133 449.5 133ZM449.5 146.75C455.854 146.75 461 149.211 461 152.25V155H438V152.25C438 149.211 443.146 146.75 449.5 146.75Z" fill="currentColor" onclick="alert('click!')"/>
<path d="M337.23 46.5352H334.662L334.174 48H332.616L335.263 40.8906H336.62L339.281 48H337.724L337.23 46.5352ZM335.058 45.3486H336.835L335.941 42.6875L335.058 45.3486ZM339.647 45.3193C339.647 44.5088 339.84 43.8561 340.224 43.3613C340.611 42.8665 341.132 42.6191 341.786 42.6191C342.366 42.6191 342.816 42.8177 343.139 43.2148L343.197 42.7168H344.477V47.8242C344.477 48.2865 344.371 48.6885 344.159 49.0303C343.951 49.3721 343.656 49.6325 343.275 49.8115C342.895 49.9906 342.449 50.0801 341.938 50.0801C341.55 50.0801 341.173 50.002 340.805 49.8457C340.437 49.6927 340.159 49.4941 339.97 49.25L340.595 48.3906C340.946 48.7845 341.373 48.9814 341.874 48.9814C342.248 48.9814 342.54 48.8805 342.748 48.6787C342.956 48.4801 343.061 48.1969 343.061 47.8291V47.5459C342.735 47.9137 342.307 48.0977 341.776 48.0977C341.142 48.0977 340.627 47.8503 340.233 47.3555C339.843 46.8574 339.647 46.1982 339.647 45.3779V45.3193ZM341.059 45.4219C341.059 45.9004 341.155 46.2764 341.347 46.5498C341.539 46.82 341.802 46.9551 342.138 46.9551C342.567 46.9551 342.875 46.7939 343.061 46.4717V44.25C342.872 43.9277 342.567 43.7666 342.147 43.7666C341.809 43.7666 341.542 43.9049 341.347 44.1816C341.155 44.4583 341.059 44.8717 341.059 45.4219ZM347.997 48.0977C347.222 48.0977 346.591 47.86 346.103 47.3848C345.618 46.9095 345.375 46.2764 345.375 45.4854V45.3486C345.375 44.818 345.478 44.3444 345.683 43.9277C345.888 43.5078 346.177 43.1855 346.552 42.9609C346.929 42.7331 347.359 42.6191 347.841 42.6191C348.563 42.6191 349.132 42.847 349.545 43.3027C349.962 43.7585 350.17 44.4046 350.17 45.2412V45.8174H346.806C346.851 46.1624 346.988 46.4391 347.216 46.6475C347.447 46.8558 347.738 46.96 348.09 46.96C348.633 46.96 349.058 46.763 349.364 46.3691L350.058 47.1455C349.846 47.445 349.56 47.6794 349.198 47.8486C348.837 48.0146 348.437 48.0977 347.997 48.0977ZM347.836 43.7617C347.556 43.7617 347.328 43.8561 347.152 44.0449C346.98 44.2337 346.869 44.5039 346.82 44.8555H348.783V44.7432C348.777 44.4307 348.692 44.1898 348.529 44.0205C348.367 43.848 348.135 43.7617 347.836 43.7617ZM352.274 42.7168L352.318 43.3271C352.696 42.8551 353.202 42.6191 353.837 42.6191C354.397 42.6191 354.813 42.7835 355.087 43.1123C355.36 43.4411 355.5 43.9326 355.507 44.5869V48H354.096V44.6211C354.096 44.3216 354.031 44.1051 353.9 43.9717C353.77 43.835 353.554 43.7666 353.251 43.7666C352.854 43.7666 352.556 43.9359 352.357 44.2744V48H350.946V42.7168H352.274ZM358.271 41.418V42.7168H359.174V43.752H358.271V46.3887C358.271 46.584 358.308 46.724 358.383 46.8086C358.458 46.8932 358.601 46.9355 358.812 46.9355C358.969 46.9355 359.107 46.9242 359.228 46.9014V47.9707C358.951 48.0553 358.666 48.0977 358.373 48.0977C357.383 48.0977 356.879 47.598 356.859 46.5986V43.752H356.088V42.7168H356.859V41.418H358.271Z" fill="currentColor"/>
<path d="M346 25.08C342.5 25.08 339.406 23.288 337.6 20.6C337.642 17.8 343.2 16.26 346 16.26C348.8 16.26 354.358 17.8 354.4 20.6C352.594 23.288 349.5 25.08 346 25.08ZM346 5.2C347.114 5.2 348.182 5.6425 348.97 6.43015C349.758 7.2178 350.2 8.28609 350.2 9.4C350.2 10.5139 349.758 11.5822 348.97 12.3698C348.182 13.1575 347.114 13.6 346 13.6C344.886 13.6 343.818 13.1575 343.03 12.3698C342.242 11.5822 341.8 10.5139 341.8 9.4C341.8 8.28609 342.242 7.2178 343.03 6.43015C343.818 5.6425 344.886 5.2 346 5.2ZM346 1C344.161 1 342.341 1.36212 340.642 2.06569C338.944 2.76925 337.401 3.80048 336.101 5.1005C333.475 7.72601 332 11.287 332 15C332 18.713 333.475 22.274 336.101 24.8995C337.401 26.1995 338.944 27.2307 340.642 27.9343C342.341 28.6379 344.161 29 346 29C349.713 29 353.274 27.525 355.899 24.8995C358.525 22.274 360 18.713 360 15C360 7.258 353.7 1 346 1Z" fill="currentColor"/>
<path d="M352.958 79.1538V104.769H450V120M352.958 79.1538H348L352.958 66L357.917 79.1538H352.958Z" stroke="#A6A6A6"/>
<path d="M338.09 79.3247V105.273H242V120M338.09 79.3247H343L338.09 66L333.181 79.3247H338.09Z" stroke="#A6A6A6"/>
<path d="M353 247V220.963H450V190" stroke="currentColor"/>
<path d="M338 247V221.1H242V191" stroke="currentColor"/>
<path d="M320 268H54" stroke="currentColor"/>
<path d="M221 144H54" stroke="currentColor"/>
<path d="M34 242V191" stroke="currentColor"/>
<path d="M34 118V66" stroke="currentColor"/>
<path d="M43.9111 75H42.5V69.5605L40.8154 70.083V68.9355L43.7598 67.8809H43.9111V75Z" fill="currentColor"/>
<path d="M219.169 135H217.758V129.561L216.073 130.083V128.936L219.018 127.881H219.169V135Z" fill="currentColor"/>
<path d="M43.9111 200H42.5V194.561L40.8154 195.083V193.936L43.7598 192.881H43.9111V200Z" fill="currentColor"/>
<path d="M235.169 200H233.758V194.561L232.073 195.083V193.936L235.018 192.881H235.169V200Z" fill="currentColor"/>
<path d="M458.911 200H457.5V194.561L455.815 195.083V193.936L458.76 192.881H458.911V200Z" fill="currentColor"/>
<path d="M58.9111 260H57.5V254.561L55.8154 255.083V253.936L58.7598 252.881H58.9111V260Z" fill="currentColor"/>
<path d="M41.665 109.303L40.1318 108.868L40.4199 107.984L41.9385 108.595L41.8408 106.891H42.7979L42.7002 108.629L44.1797 108.028L44.4678 108.922L42.9053 109.356L43.9307 110.655L43.1543 111.207L42.2656 109.781L41.3867 111.158L40.6104 110.631L41.665 109.303Z" fill="currentColor"/>
<path d="M56.665 130.303L55.1318 129.868L55.4199 128.984L56.9385 129.595L56.8408 127.891H57.7979L57.7002 129.629L59.1797 129.028L59.4678 129.922L57.9053 130.356L58.9307 131.655L58.1543 132.207L57.2656 130.781L56.3867 132.158L55.6104 131.631L56.665 130.303Z" fill="currentColor"/>
<path d="M41.665 234.303L40.1318 233.868L40.4199 232.984L41.9385 233.595L41.8408 231.891H42.7979L42.7002 233.629L44.1797 233.028L44.4678 233.922L42.9053 234.356L43.9307 235.655L43.1543 236.207L42.2656 234.781L41.3867 236.158L40.6104 235.631L41.665 234.303Z" fill="currentColor"/>
<path d="M316.134 255.303L314.601 254.868L314.889 253.984L316.407 254.595L316.31 252.891H317.267L317.169 254.629L318.648 254.028L318.937 254.922L317.374 255.356L318.399 256.655L317.623 257.207L316.734 255.781L315.855 257.158L315.079 256.631L316.134 255.303Z" fill="currentColor"/>
<path d="M330.134 234.303L328.601 233.868L328.889 232.984L330.407 233.595L330.31 231.891H331.267L331.169 233.629L332.648 233.028L332.937 233.922L331.374 234.356L332.399 235.655L331.623 236.207L330.734 234.781L329.855 236.158L329.079 235.631L330.134 234.303Z" fill="currentColor"/>
<path d="M359.665 234.303L358.132 233.868L358.42 232.984L359.938 233.595L359.841 231.891H360.798L360.7 233.629L362.18 233.028L362.468 233.922L360.905 234.356L361.931 235.655L361.154 236.207L360.266 234.781L359.387 236.158L358.61 235.631L359.665 234.303Z" fill="currentColor"/>
</svg>