<svg id="a40867ae-a3fb-44ca-a864-7a0ea3406419" data-name="Layer 1" xmlns="http://www.w3.org/2000/svg" viewBox="0 0 1000 238.17"><defs><style>.e4aeb193-c0a0-47fa-9426-5a1b82aae59e,.f101f5b6-1577-43ef-b3a7-1e5a76dbcd0b,.fa61781b-d604-4d4c-ae59-95044d1c69cc{fill:#fff;}.f101f5b6-1577-43ef-b3a7-1e5a76dbcd0b{opacity:0.5;}.e1860e43-bcec-4672-8253-fa5a7928fbe7{fill:#d9ed92;}.fc290dda-f53d-40b1-aa8d-c8b5d895946e{fill:#b5e48c;}.f8f9dc44-c878-4ec0-80b4-133af8d426d6{fill:#99d98c;}.fa61781b-d604-4d4c-ae59-95044d1c69cc{opacity:0.75;}</style></defs><polygon class="f101f5b6-1577-43ef-b3a7-1e5a76dbcd0b" points="46.98 217.25 46.98 62.75 93.96 83.66 93.96 238.17 46.98 217.25"/><polygon class="e1860e43-bcec-4672-8253-fa5a7928fbe7" points="46.98 156.08 93.96 135.17 46.98 114.25 0 135.16 46.98 156.08"/><polygon class="fc290dda-f53d-40b1-aa8d-c8b5d895946e" points="93.96 186.67 93.96 135.17 46.98 156.08 46.98 207.58 93.96 186.67"/><polygon class="f8f9dc44-c878-4ec0-80b4-133af8d426d6" points="0 135.16 46.98 156.08 46.98 207.58 0 186.67 0 135.16"/><polygon class="e4aeb193-c0a0-47fa-9426-5a1b82aae59e" points="93.96 83.66 93.96 238.17 140.94 217.25 140.94 165.75 187.91 144.84 187.91 196.34 234.89 175.42 234.89 20.92 187.91 41.83 187.91 93.33 140.94 114.25 140.94 62.75 93.96 83.66"/><polygon class="f101f5b6-1577-43ef-b3a7-1e5a76dbcd0b" points="187.91 196.34 140.94 175.42 140.94 165.75 187.91 144.84 187.91 196.34"/><polygon class="f101f5b6-1577-43ef-b3a7-1e5a76dbcd0b" points="187.91 93.33 140.94 72.42 140.94 20.91 187.91 41.83 187.91 93.33"/><polygon class="fa61781b-d604-4d4c-ae59-95044d1c69cc" points="46.98 62.75 93.96 83.66 140.94 62.75 93.96 41.83 46.98 62.75"/><polygon class="fa61781b-d604-4d4c-ae59-95044d1c69cc" points="140.94 114.25 187.91 93.33 140.94 72.42 140.94 114.25"/><polygon class="fa61781b-d604-4d4c-ae59-95044d1c69cc" points="140.94 20.91 187.91 41.83 234.89 20.92 187.91 0 140.94 20.91"/><path class="e4aeb193-c0a0-47fa-9426-5a1b82aae59e" d="M328.85,138.28v-117h22v41a31.92,31.92,0,0,1,11.06-5.93,41.11,41.11,0,0,1,11.7-1.76q11.87,0,19.64,5a30.75,30.75,0,0,1,11.62,13.3,43.38,43.38,0,0,1,3.85,18.43v47h-22v-47a17.44,17.44,0,0,0-2.41-9,17.87,17.87,0,0,0-6.49-6.49,17.47,17.47,0,0,0-9.06-2.41,17.67,17.67,0,0,0-8.89,2.33,18.32,18.32,0,0,0-6.57,6.25,16,16,0,0,0-2.49,8.73v47.61Z"/><path class="e4aeb193-c0a0-47fa-9426-5a1b82aae59e" d="M468.79,140.2a44.62,44.62,0,0,1-22.61-5.69,42.51,42.51,0,0,1-15.7-15.38,41.66,41.66,0,0,1-5.77-21.72,41.61,41.61,0,0,1,5.77-21.72,42.46,42.46,0,0,1,15.7-15.39,47.75,47.75,0,0,1,45.21,0A42.57,42.57,0,0,1,507.1,75.69a41.7,41.7,0,0,1,5.77,21.72,41.75,41.75,0,0,1-5.77,21.72,42.62,42.62,0,0,1-15.71,15.38A44.61,44.61,0,0,1,468.79,140.2Zm0-18.75a20.71,20.71,0,0,0,11.62-3.21,21.11,21.11,0,0,0,7.53-8.65,29.34,29.34,0,0,0,0-24.37,21.17,21.17,0,0,0-7.53-8.65,22.65,22.65,0,0,0-23.25,0,21.17,21.17,0,0,0-7.53,8.65,29.44,29.44,0,0,0,0,24.37,21.11,21.11,0,0,0,7.53,8.65A20.72,20.72,0,0,0,468.79,121.45Z"/><path class="e4aeb193-c0a0-47fa-9426-5a1b82aae59e" d="M528.9,138.28V89.71a34.49,34.49,0,0,1,4.64-17.63,33.47,33.47,0,0,1,13.39-12.74q8.73-4.74,21.08-4.73A42,42,0,0,1,579,56a37.66,37.66,0,0,1,9.38,3.93A32.64,32.64,0,0,1,595.9,66h.16a35.84,35.84,0,0,1,7.69-6.09A37.3,37.3,0,0,1,613.21,56a42.91,42.91,0,0,1,11.06-1.36q12.35,0,21.08,4.73a33.6,33.6,0,0,1,13.39,12.74,34.58,34.58,0,0,1,4.64,17.63v48.57h-22V89.71a15,15,0,0,0-2.32-8.17,17.82,17.82,0,0,0-6.17-5.94,17.69,17.69,0,0,0-17.23,0,17.59,17.59,0,0,0-6.26,5.94,15,15,0,0,0-2.32,8.17v48.57h-22V89.71a15.09,15.09,0,0,0-2.32-8.17,17.77,17.77,0,0,0-6.18-5.94,17.69,17.69,0,0,0-17.23,0,17.56,17.56,0,0,0-6.25,5.94,15,15,0,0,0-2.32,8.17v48.57Z"/><path class="e4aeb193-c0a0-47fa-9426-5a1b82aae59e" d="M725.42,138.28q-13.95,0-24.29-5.37a39.84,39.84,0,0,1-16-14.67,39.11,39.11,0,0,1-5.69-20.83q0-13,5.29-22.61a38,38,0,0,1,14.43-14.9,40.47,40.47,0,0,1,20.68-5.29q13.79,0,22.36,5.77a33.74,33.74,0,0,1,12.58,15.47,56,56,0,0,1,4,21.56c0,1.06-.06,2.32-.16,3.76a18.17,18.17,0,0,1-.48,3.29h-55.3a18.92,18.92,0,0,0,4.4,8.33,19.37,19.37,0,0,0,7.86,5,31.42,31.42,0,0,0,10.66,1.69H748.5v18.75ZM702.66,89.71H736.8A31.51,31.51,0,0,0,735.68,84a17.08,17.08,0,0,0-2.25-4.73,15,15,0,0,0-3.36-3.52,14.78,14.78,0,0,0-4.49-2.25,18.87,18.87,0,0,0-5.61-.8,16.92,16.92,0,0,0-7.14,1.44A15.29,15.29,0,0,0,707.62,78a18.68,18.68,0,0,0-3.28,5.45A28.46,28.46,0,0,0,702.66,89.71Z"/><path class="e4aeb193-c0a0-47fa-9426-5a1b82aae59e" d="M835.06,57.89a36.58,36.58,0,0,1,13.46,9.3,41.33,41.33,0,0,1,8.34,14.11A52.47,52.47,0,0,1,859.74,99a45.13,45.13,0,0,1-4.88,21.4,36.6,36.6,0,0,1-13.71,14.5q-8.82,5.29-20.84,5.29a33.65,33.65,0,0,1-9.86-1.44,28.48,28.48,0,0,1-8.49-4.17,26.38,26.38,0,0,1-6.33-6.41h-.16v45.37h-22V99q0-13.47,5.29-23.49a37.34,37.34,0,0,1,15-15.46q9.71-5.46,22.85-5.45A48.33,48.33,0,0,1,835.06,57.89ZM805.48,76.57a20.53,20.53,0,0,0-7.21,8.65,31.17,31.17,0,0,0,0,24.37,20.47,20.47,0,0,0,7.21,8.65,21.09,21.09,0,0,0,22.37,0,20.74,20.74,0,0,0,7.13-8.65,31.17,31.17,0,0,0,0-24.37,20.8,20.8,0,0,0-7.13-8.65,21.09,21.09,0,0,0-22.37,0Z"/><path class="e4aeb193-c0a0-47fa-9426-5a1b82aae59e" d="M908,140.2a33.44,33.44,0,0,1-19.55-5.77A38.17,38.17,0,0,1,875.53,119,49.69,49.69,0,0,1,871,97.57a45.65,45.65,0,0,1,5.21-21.8,38.65,38.65,0,0,1,15-15.47q9.78-5.7,23.4-5.69,13.79,0,23.25,5.77a38.09,38.09,0,0,1,14.42,15.55,47,47,0,0,1,5,21.64v40.71h-22V124.66h-.32a33.93,33.93,0,0,1-6,7.85,26.7,26.7,0,0,1-8.74,5.61A32.27,32.27,0,0,1,908,140.2Zm6.25-18.75a19,19,0,0,0,11.06-3.21,20.61,20.61,0,0,0,7.14-8.73,29.73,29.73,0,0,0,2.48-12.27,28.6,28.6,0,0,0-2.48-12.1,20.83,20.83,0,0,0-7.14-8.57,19,19,0,0,0-11.06-3.21,19.63,19.63,0,0,0-11.3,3.21,20.61,20.61,0,0,0-7.21,8.57,28.45,28.45,0,0,0-2.48,12.1,29.57,29.57,0,0,0,2.48,12.27,20.4,20.4,0,0,0,7.21,8.73A19.63,19.63,0,0,0,914.24,121.45Z"/><path class="e4aeb193-c0a0-47fa-9426-5a1b82aae59e" d="M978,138.28v-117h22v117Z"/><path class="e4aeb193-c0a0-47fa-9426-5a1b82aae59e" d="M343.93,204.38q-2.21,2.12-6.7,2.12h-5v10.75h-3.37V191.51h8.32q4.35,0,6.63,2.1a7.61,7.61,0,0,1,.07,10.77Zm-2.57-1.87a4.46,4.46,0,0,0,1.33-3.47c0-3.18-1.82-4.76-5.46-4.76h-5v9.45h5A5.91,5.91,0,0,0,341.36,202.51Z"/><path class="e4aeb193-c0a0-47fa-9426-5a1b82aae59e" d="M377.12,217.25,371,206.72h-4.07v10.53h-3.36V191.51h8.31a11.08,11.08,0,0,1,4.93,1,7,7,0,0,1,3,2.7,7.47,7.47,0,0,1-5.14,11.27l6.46,10.78ZM366.92,204h4.95a5.6,5.6,0,0,0,4.1-1.35,4.84,4.84,0,0,0,1.37-3.6,4.61,4.61,0,0,0-1.35-3.55,5.9,5.9,0,0,0-4.12-1.25h-4.95Z"/><path class="e4aeb193-c0a0-47fa-9426-5a1b82aae59e" d="M404.42,215.83a12.33,12.33,0,0,1-4.68-4.69,14.3,14.3,0,0,1,0-13.56,12.4,12.4,0,0,1,4.68-4.69,13.63,13.63,0,0,1,13.11,0,12.2,12.2,0,0,1,4.65,4.67,14.45,14.45,0,0,1,0,13.6,12.2,12.2,0,0,1-4.65,4.67,13.63,13.63,0,0,1-13.11,0Zm11.39-2.49a8.93,8.93,0,0,0,3.4-3.59,12.38,12.38,0,0,0,0-10.8,9,9,0,0,0-3.38-3.57,10.13,10.13,0,0,0-9.75,0A8.89,8.89,0,0,0,402.7,199a12.38,12.38,0,0,0,0,10.8,8.86,8.86,0,0,0,3.4,3.59,10.05,10.05,0,0,0,9.71,0Z"/><path class="e4aeb193-c0a0-47fa-9426-5a1b82aae59e" d="M456.59,204.38q-2.2,2.12-6.7,2.12h-4.95v10.75h-3.37V191.51h8.32q4.35,0,6.63,2.1a7.61,7.61,0,0,1,.07,10.77ZM454,202.51a4.46,4.46,0,0,0,1.33-3.47c0-3.18-1.82-4.76-5.46-4.76h-4.95v9.45h4.95A5.91,5.91,0,0,0,454,202.51Z"/><path class="e4aeb193-c0a0-47fa-9426-5a1b82aae59e" d="M479.58,194.24v8.61H489v2.77h-9.39v8.86h10.49v2.77H476.22V191.47h13.85v2.77Z"/><path class="e4aeb193-c0a0-47fa-9426-5a1b82aae59e" d="M522,217.25l-6.13-10.53h-4.07v10.53h-3.36V191.51h8.31a11.08,11.08,0,0,1,4.93,1,6.93,6.93,0,0,1,3,2.7,7.48,7.48,0,0,1,1,3.88,7.24,7.24,0,0,1-6.13,7.39L526,217.25ZM511.79,204h4.95a5.6,5.6,0,0,0,4.1-1.35,4.84,4.84,0,0,0,1.37-3.6,4.61,4.61,0,0,0-1.35-3.55,5.9,5.9,0,0,0-4.12-1.25h-4.95Z"/><path class="e4aeb193-c0a0-47fa-9426-5a1b82aae59e" d="M560,191.51v2.73h-7v23h-3.36v-23h-7.06v-2.73Z"/><path class="e4aeb193-c0a0-47fa-9426-5a1b82aae59e" d="M595.42,191.51l-8.38,16v9.71h-3.37v-9.71l-8.42-16H579l6.36,13,6.35-13Z"/><path class="e4aeb193-c0a0-47fa-9426-5a1b82aae59e" d="M651.2,191.51v2.73h-7v23h-3.36v-23h-7.06v-2.73Z"/><path class="e4aeb193-c0a0-47fa-9426-5a1b82aae59e" d="M672,194.24v8.61h9.38v2.77H672v8.86h10.49v2.77H668.59V191.47h13.86v2.77Z"/><path class="e4aeb193-c0a0-47fa-9426-5a1b82aae59e" d="M701.25,197.58a12.39,12.39,0,0,1,4.63-4.71,12.81,12.81,0,0,1,6.52-1.7,13.17,13.17,0,0,1,7.35,2,11.57,11.57,0,0,1,4.58,5.76h-4a8.19,8.19,0,0,0-3.09-3.59,9,9,0,0,0-4.82-1.25,9.46,9.46,0,0,0-4.84,1.25A8.78,8.78,0,0,0,704.2,199a12.52,12.52,0,0,0,0,10.78,8.78,8.78,0,0,0,3.36,3.57,9.37,9.37,0,0,0,4.84,1.26,9.07,9.07,0,0,0,4.82-1.24,8.08,8.08,0,0,0,3.09-3.57h4a11.48,11.48,0,0,1-4.58,5.71,13.32,13.32,0,0,1-7.35,2,12.9,12.9,0,0,1-6.52-1.68,12.22,12.22,0,0,1-4.63-4.67,14.33,14.33,0,0,1,0-13.54Z"/><path class="e4aeb193-c0a0-47fa-9426-5a1b82aae59e" d="M762.42,191.51v25.74h-3.37V205.58H745.94v11.67h-3.36V191.51h3.36v11.3h13.11v-11.3Z"/><path class="e4aeb193-c0a0-47fa-9426-5a1b82aae59e" d="M824.29,217.25l-3.36-3.4a12.57,12.57,0,0,1-4,2.9,11.88,11.88,0,0,1-4.84.95,11,11,0,0,1-4.71-1,7.35,7.35,0,0,1-3.18-2.73,7.55,7.55,0,0,1-1.12-4.14,7.7,7.7,0,0,1,1.53-4.74,10,10,0,0,1,4.53-3.23,10.85,10.85,0,0,1-1.7-2.59,6.31,6.31,0,0,1-.52-2.59,5.38,5.38,0,0,1,.83-2.93,5.51,5.51,0,0,1,2.38-2.05,8.31,8.31,0,0,1,3.59-.74,7.46,7.46,0,0,1,3.47.77,5.15,5.15,0,0,1,2.21,2.17A5.8,5.8,0,0,1,820,197h-3.36a3.09,3.09,0,0,0-.85-2.38,3.14,3.14,0,0,0-2.29-.87,3.38,3.38,0,0,0-2.38.83,2.73,2.73,0,0,0-.91,2.12,4.15,4.15,0,0,0,.61,2.15,15.39,15.39,0,0,0,2,2.55l7.68,7.72.67-1,2.51-4.21h3.62l-3,5.25c-.42.73-.91,1.51-1.48,2.32l5.8,5.8ZM815.66,214a10,10,0,0,0,3.05-2.4L811.14,204c-3.16,1.2-4.73,3.11-4.73,5.72a4.68,4.68,0,0,0,1.57,3.62,5.79,5.79,0,0,0,4.08,1.44A8.12,8.12,0,0,0,815.66,214Z"/><path class="e4aeb193-c0a0-47fa-9426-5a1b82aae59e" d="M883.52,193.08a11,11,0,0,1,4.72,4.48,15.11,15.11,0,0,1,0,13.73,10.82,10.82,0,0,1-4.72,4.43,16.27,16.27,0,0,1-7.3,1.53h-8V191.51h8A15.88,15.88,0,0,1,883.52,193.08Zm.31,18.76q2.63-2.64,2.62-7.41a10.23,10.23,0,0,0-2.64-7.49q-2.64-2.7-7.59-2.7h-4.65v20.24h4.65C879.55,214.48,882.08,213.6,883.83,211.84Z"/><path class="e4aeb193-c0a0-47fa-9426-5a1b82aae59e" d="M922.8,211.53H911.57l-2.07,5.72H906l9.3-25.6h3.88l9.27,25.6h-3.54Zm-1-2.74-4.65-13-4.66,13Z"/><path class="e4aeb193-c0a0-47fa-9426-5a1b82aae59e" d="M961.58,191.51v2.73h-7v23h-3.36v-23h-7.06v-2.73Z"/><path class="e4aeb193-c0a0-47fa-9426-5a1b82aae59e" d="M994.2,211.53H983l-2.07,5.72h-3.54l9.31-25.6h3.87l9.28,25.6h-3.55Zm-1-2.74-4.65-13-4.66,13Z"/></svg>